# xmcd CD database file
#
# Track frame offsets:
#	150
#	10831
#	21402
#	33666
#	43414
#	53625
#	63350
#	76429
#	90488
#	102125
#	110494
#	121951
#
# Disc length: 1775 seconds
#
# Revision: 5
# Processed by: cddbd v1.5.2PL0 Copyright (c) Steve Scherf et al.
# Submitted via: CDex 2.17
#
DISCID=9806ed0c
DTITLE=Barbara Mandrell - Greatest Hits
DYEAR=2018
DGENRE=Country
TTITLE0=The Wayward Wind
TTITLE1=Break My Mind
TTITLE2=Mama Don't Low
TTITLE3=After Closing Time
TTITLE4=This Time I Almost Made It
TTITLE5=Do Right Woman Do Right Man
TTITLE6=Lillies Grow High
TTITLE7=Almost Persuaded
TTITLE8=Lovin' You Is Worth It
TTITLE9=I Gave My Love To A Railroad Ma
TTITLE10=Give A Little, Take A Little
TTITLE11=Playin' Around With Love
EXTD=YEAR: 2018
EXTT0=
EXTT1=
EXTT2=
EXTT3=
EXTT4=
EXTT5=
EXTT6=
EXTT7=
EXTT8=
EXTT9=
EXTT10=
EXTT11=
PLAYORDER=
